<?xml version="1.0" encoding="UTF-8"?>
<svg id="_xF91C_迹_x5F_1" xmlns="http://www.w3.org/2000/svg" version="1.1" xmlns:xlink="http://www.w3.org/1999/xlink" viewBox="0 0 288.2207311 273">
  <!-- Generator: Adobe Illustrator 29.5.0, SVG Export Plug-In . SVG Version: 2.1.0 Build 137)  -->
  <defs>
    <style>
      .st0 {
        fill: url(#_무제_그라디언트);
      }

      .st1 {
        fill: url(#_무제_그라디언트_2);
      }
    </style>
    <linearGradient id="_무제_그라디언트" data-name="무제 그라디언트" x1="1.8508862" y1="19.693848" x2="262.7202623" y2="252.3896582" gradientTransform="translate(0 271.0708705) scale(1 -1)" gradientUnits="userSpaceOnUse">
      <stop offset="0" stop-color="#008bae"/>
      <stop offset=".9944134" stop-color="#009192"/>
    </linearGradient>
    <linearGradient id="_무제_그라디언트_2" data-name="무제 그라디언트 2" x1="11.4723887" y1="1.3820541" x2="188.8635564" y2="165.5560659" gradientTransform="translate(0 271.0708705) scale(1 -1)" gradientUnits="userSpaceOnUse">
      <stop offset=".0049541" stop-color="#008bae"/>
      <stop offset="1" stop-color="#009192"/>
    </linearGradient>
  </defs>
  <path class="st0" d="M105.1753838,170.4290832c-2.078125,0-4.1904297-.2607422-6.2958984-.8066406-13.3642578-3.4677734-21.3876953-17.1132812-17.9199219-30.4775391l19.1035156-73.6279297c5.0742188-19.5556641,19.4038086-34.5722656,37.3969803-39.1889648L223.2368996,4.3153208c16.4375-4.2163086,33.640152.6738281,46.0180817,13.0839849,14.4633789,14.5019531,20.0981445,36.4233398,14.7045898,57.2104492l-10.4013672,40.0869141c-3.4677734,13.3642502-17.1137695,21.3915939-30.4775391,17.9189377-13.3647461-3.4677734-21.3876953-17.1123047-17.9199219-30.4770508l10.4013672-40.0864258c1.1347656-4.3730469-.3120117-7.5874023-1.3442383-8.9345703l-83.9897461,21.5537109c-.3891602.3378906-1.2480469,1.4013672-1.7675781,3.4033203l-19.1035156,73.6269531c-2.9213867,11.2597656-13.0664062,18.7275391-24.1816483,18.7275391ZM150.3404152,74.5843642h0Z"/>
  <path class="st1" d="M53.2720634,270.1691039c-12.5898438,0-24.8554688-5.0927734-34.3076172-14.5703125-14.4628906-14.5019531-20.0966797-36.4228516-14.703125-57.2099609l10.4008789-40.0849609c3.4677734-13.3652344,17.1108398-21.3945312,30.4775391-17.9199219,13.3642578,3.4667969,21.3876953,17.1123047,17.9199219,30.4765625l-10.4008789,40.0859375c-1.1347656,4.3740234.3115234,7.5888672,1.34375,8.9355469l83.9897537-21.5537109c.3891602-.3378906,1.2480469-1.4003906,1.7675781-3.4033203l19.1040039-73.6279297c3.4672852-13.3632812,17.1108398-21.3881836,30.4775391-17.9194336,13.3647461,3.4682617,21.3876953,17.112793,17.9199219,30.4780273l-19.1040039,73.6269531c-5.0737305,19.5546875-19.402832,34.5712891-37.3959961,39.1884766l-85.7773438,22.0126953c-3.8857422.9980469-7.8144531,1.4853516-11.7119217,1.4853516ZM137.8804543,198.4142363c0,.0009766-.0004883.0009766-.0004883.0009766,0,0,.0004883,0,.0004883-.0009766Z"/>
</svg>